<svg width="40" height="40" viewBox="0 0 40 40" fill="none" xmlns="http://www.w3.org/2000/svg">
<path d="M20 40C31.0457 40 40 31.0457 40 20C40 8.95431 31.0457 0 20 0C8.95431 0 0 8.95431 0 20C0 31.0457 8.95431 40 20 40Z" fill="white"/>
<path d="M6.79004 20H32.0281" stroke="#48494E" stroke-width="4" stroke-miterlimit="10" stroke-linecap="round"/>
<path fill-rule="evenodd" clip-rule="evenodd" d="M35.6858 20.1333L30.0763 24.7905C29.9239 24.9143 29.6572 24.7905 29.6572 24.6476V15.3429C29.6572 15.1714 29.9239 15.0762 30.0763 15.2095L35.6858 19.8572C35.7075 19.8731 35.7251 19.8939 35.7372 19.9179C35.7493 19.9419 35.7557 19.9684 35.7557 19.9953C35.7557 20.0221 35.7493 20.0486 35.7372 20.0726C35.7251 20.0966 35.7075 20.1174 35.6858 20.1333V20.1333Z" fill="#48494E"/>
</svg>
