<svg width="40" height="40" viewBox="0 0 40 40" fill="none" xmlns="http://www.w3.org/2000/svg">
<path d="M30.25 9L12.25 9C11.8354 9 11.5 9.34343 11.5 9.76787L11.5 13.6071H13L13 10.5357L29.5 10.5357L29.5 28.9643L13 28.9643L13 25.8929H11.5L11.5 29.7321C11.5 30.1566 11.8354 30.5 12.25 30.5L30.25 30.5C30.6646 30.5 31 30.1566 31 29.7321L31 9.76782C31 9.34343 30.6645 9 30.25 9Z" fill="white"/>
<path d="M14.9092 23.4458L15.9697 24.5L21 19.5L15.9697 14.5L14.9092 15.5542L18.1289 18.7545L6 18.7545L6 20.2455L18.1289 20.2455L14.9092 23.4458Z" fill="white"/>
</svg>
