<svg width="40" height="40" viewBox="0 0 40 40" fill="none" xmlns="http://www.w3.org/2000/svg">
<path d="M9.75005 31L27.75 31C28.1646 31 28.5 30.6566 28.5 30.2321V26.3929H27V29.4643L10.5 29.4643L10.5 11.0357L27 11.0357V14.1071H28.5V10.2679C28.5 9.84343 28.1646 9.5 27.75 9.5L9.75001 9.5C9.33544 9.5 9 9.84343 9 10.2679L9 30.2322C9 30.6566 9.33548 31 9.75005 31Z" fill="#00A1D1"/>
<path d="M25.0908 16.5542L24.0303 15.5L19 20.5L24.0303 25.5L25.0908 24.4458L21.8711 21.2455H34V19.7545H21.8711L25.0908 16.5542Z" fill="#00A1D1"/>
</svg>
