<svg width="40" height="40" viewBox="0 0 40 40" fill="none" xmlns="http://www.w3.org/2000/svg">
<path d="M20 2C16.5388 2 13.1554 3.02636 10.2775 4.94928C7.39967 6.87221 5.15665 9.60533 3.83212 12.803C2.50758 16.0007 2.16102 19.5194 2.83627 22.9141C3.51151 26.3088 5.17822 29.427 7.62564 31.8744C10.0731 34.3218 13.1913 35.9885 16.5859 36.6637C19.9806 37.339 23.4993 36.9924 26.697 35.6679C29.8947 34.3434 32.6278 32.1003 34.5507 29.2225C36.4736 26.3446 37.5 22.9612 37.5 19.5C37.4974 14.8595 35.6528 10.4099 32.3714 7.12856C29.0901 3.84724 24.6405 2.00265 20 2Z" fill="#E77910"/>
<path fill-rule="evenodd" clip-rule="evenodd" d="M26.3595 11.3999L28.4795 13.5199L22.1195 19.8799L28.4795 26.2499L26.3595 28.3699L19.9995 21.9999L13.6395 28.3699L11.5195 26.2499L17.8795 19.8799L11.5195 13.5199L13.6395 11.3999L19.9995 17.7599L26.3595 11.3999Z" fill="white"/>
</svg>
