<svg width="40" height="40" viewBox="0 0 40 40" fill="none" xmlns="http://www.w3.org/2000/svg">
<path d="M20 0C16.0444 0 12.1776 1.17298 8.8886 3.37061C5.59962 5.56823 3.03617 8.69181 1.52242 12.3463C0.00866549 16.0008 -0.387401 20.0222 0.384303 23.9018C1.15601 27.7814 3.06082 31.3451 5.85787 34.1421C8.65492 36.9392 12.2186 38.844 16.0982 39.6157C19.9778 40.3874 23.9991 39.9913 27.6537 38.4776C31.3082 36.9638 34.4318 34.4004 36.6294 31.1114C38.827 27.8224 40 23.9556 40 20C39.997 14.6966 37.8889 9.61128 34.1388 5.86121C30.3887 2.11114 25.3034 0.00302792 20 0Z" fill="#B5BEC5"/>
<path fill-rule="evenodd" clip-rule="evenodd" d="M25.25 13L27 14.749L21.75 19.9959L27 25.251L25.25 27L20 21.7448L14.75 27L13 25.251L18.25 19.9959L13 14.749L14.75 13L20 18.2469L25.25 13Z" fill="white"/>
</svg>
