<svg width="40" height="40" viewBox="0 0 40 40" fill="none" xmlns="http://www.w3.org/2000/svg">
<path fill-rule="evenodd" clip-rule="evenodd" d="M28.9923 6C24.1729 6 19.9052 9.18126 19.9052 13.5142H19.9235V17.6064H3.8742C3.87339 17.6064 3.87261 17.6063 3.87181 17.6063C2.82861 17.6327 1.91992 18.364 1.91992 19.2281V34.3769C1.91992 35.3237 2.86047 36 3.92641 36H23.9911C25.1198 36 25.9976 35.3237 25.9976 34.3769V19.2281C25.9976 18.3658 25.1528 17.634 24.0554 17.6064H23.0095V13.5142H23.0309C23.0309 11.3548 25.5351 9.12577 28.9924 9.12577C32.5225 9.12577 34.9538 11.3346 34.9538 13.5142H34.9746V17.8367H38.0538V13.5142H38.0795C38.0795 9.20141 33.8642 6 28.9923 6H28.9923ZM13.9588 20.848C14.6572 20.848 15.3271 21.1374 15.8209 21.6525C16.3148 22.1676 16.5923 22.8663 16.5923 23.5947C16.5923 24.1483 16.4319 24.689 16.1321 25.1459C15.8324 25.6027 15.4073 25.9544 14.9126 26.1549L17.9717 32.7538H9.9458L13.0061 26.1524C12.5115 25.9523 12.0865 25.601 11.7865 25.1446C11.4866 24.6882 11.3258 24.148 11.3253 23.5947C11.3253 22.8663 11.6027 22.1676 12.0966 21.6525C12.5905 21.1374 13.2603 20.848 13.9588 20.848V20.848Z" fill="#B5BEC5"/>
</svg>
