<svg width="40" height="40" viewBox="0 0 40 40" fill="none" xmlns="http://www.w3.org/2000/svg">
<path fill-rule="evenodd" clip-rule="evenodd" d="M20 6C15.2184 6 10.9842 9.15637 10.9842 13.4552H11.0023V17.7494H10.0464C8.98882 17.7494 8.05566 18.4875 8.05566 19.3597V34.3896C8.05566 35.329 8.98882 36 10.0464 36H29.9536C31.0734 36 31.9443 35.329 31.9443 34.3896V19.3597C31.9443 18.4875 31.0734 17.7494 29.9536 17.7494H28.9903V13.4552H29.0158C29.0158 9.17633 24.8337 6 20 6H20ZM20 9.1012C23.5024 9.1012 25.9147 11.2929 25.9147 13.4552H25.9353V17.7494H14.0641V13.4552H14.0854C14.0854 11.3128 16.5698 9.1012 20 9.1012H20ZM20 20.9669C20.3431 20.9669 20.6829 21.0373 20.9999 21.1743C21.3169 21.3112 21.6049 21.512 21.8476 21.7651C22.0902 22.0181 22.2827 22.3185 22.414 22.6492C22.5453 22.9798 22.6128 23.3342 22.6128 23.6921C22.6128 24.2413 22.4537 24.7778 22.1563 25.2311C21.8589 25.6844 21.4372 26.0333 20.9463 26.2323L23.9815 32.7793H16.0185L19.0548 26.2297C18.5641 26.0311 18.1424 25.6826 17.8448 25.2298C17.5473 24.777 17.3877 24.241 17.3872 23.6921C17.3872 23.3342 17.4547 22.9798 17.586 22.6492C17.7173 22.3185 17.9098 22.0181 18.1524 21.7651C18.3951 21.512 18.6831 21.3112 19.0001 21.1743C19.3171 21.0373 19.6569 20.9669 20 20.9669Z" fill="#B5BEC5"/>
</svg>
