<svg width="40" height="40" viewBox="0 0 40 40" fill="none" xmlns="http://www.w3.org/2000/svg">
<g clip-path="url(#clip0_849_2532)">
<path d="M20 40C31.0457 40 40 31.0457 40 20C40 8.95431 31.0457 0 20 0C8.95431 0 0 8.95431 0 20C0 31.0457 8.95431 40 20 40Z" fill="#00A1D1"/>
<path d="M29 12.5V27C29 29.2 27.2 31 25 31H17.7C16.62 31 15.6 30.57 14.85 29.81L7 21.83C7 21.83 8.26 20.6 8.3 20.58C8.52 20.39 8.79 20.29 9.09 20.29C9.31 20.29 9.51 20.35 9.69 20.45C9.73 20.46 14 22.91 14 22.91V11C14 10.17 14.67 9.5 15.5 9.5C16.33 9.5 17 10.17 17 11V18H18V8.5C18 7.67 18.67 7 19.5 7C20.33 7 21 7.67 21 8.5V18H22V9.5C22 8.67 22.67 8 23.5 8C24.33 8 25 8.67 25 9.5V18H26V12.5C26 11.67 26.67 11 27.5 11C28.33 11 29 11.67 29 12.5Z" fill="white"/>
</g>
<defs>
<clipPath id="clip0_849_2532">
<rect width="40" height="40" fill="white"/>
</clipPath>
</defs>
</svg>
