<svg width="40" height="40" viewBox="0 0 40 40" fill="none" xmlns="http://www.w3.org/2000/svg">
<path d="M9.88778 31.678C11.6025 31.678 12.9978 30.2823 12.9978 28.5667C12.9978 26.8512 11.6029 25.4555 9.88778 25.4555C8.17261 25.4555 6.77734 26.8512 6.77734 28.5667C6.77734 30.2823 8.17303 31.678 9.88778 31.678ZM9.88778 27.0952C10.6988 27.0952 11.3585 27.7553 11.3585 28.5667C11.3585 29.3786 10.6988 30.0387 9.88778 30.0387C9.0768 30.0387 8.41709 29.3786 8.41709 28.5667C8.41709 27.7553 9.0768 27.0952 9.88778 27.0952Z" fill="#00A1D1"/>
<path d="M14.0837 38.2052V33.8436C15.6353 32.6064 16.6323 30.7014 16.6323 28.5667C16.6323 25.7385 14.8832 23.3132 12.4109 22.3116V8.8881C12.9541 8.47795 13.3939 7.939 13.6862 7.317L16.6619 7.31954L21.2354 7.317C21.3837 7.63774 21.5668 7.94874 21.7871 8.24322L24.4094 11.6761C24.5708 11.8871 24.8145 11.9981 25.0615 11.9981C25.2322 11.9981 25.4043 11.9451 25.5513 11.8354L25.9386 11.546L26.8851 12.815C26.5538 13.1218 26.3381 13.5298 26.272 13.9849C26.1953 14.5128 26.3284 15.0374 26.6445 15.4602C27.0173 15.9619 27.6152 16.2614 28.244 16.2614C28.6753 16.2614 29.0854 16.1254 29.4316 15.8678L30.5413 15.0386L31.1438 15.8462C31.4391 16.2415 31.8938 16.4504 32.3552 16.4504C32.6183 16.4504 32.8831 16.3814 33.1225 16.2411L34.1559 17.5593C34.3178 17.7656 34.5585 17.8732 34.8017 17.8732C34.9788 17.8732 35.1567 17.8165 35.3071 17.6987C35.6631 17.4194 35.7253 16.9038 35.4461 16.5479L34.4326 15.2551C34.6695 15.0251 34.825 14.7259 34.8737 14.3933C34.9326 13.9929 34.8322 13.5946 34.5911 13.2722L33.9881 12.4638L35.2241 11.5405C36.0965 10.8821 36.2766 9.6334 35.6249 8.7576C35.2529 8.2572 34.6559 7.95849 34.0284 7.95849C33.6683 7.95849 33.3234 8.05467 33.017 8.23559L32.0709 6.96744L32.4598 6.6772C32.8225 6.40603 32.8971 5.89249 32.6264 5.5298L30.0405 2.066C29.074 0.772418 27.527 0 25.9017 0C24.7831 0 23.72 0.352948 22.8269 1.02029C22.351 1.37578 21.9557 1.79906 21.6409 2.26598H12.5155C11.7957 1.68551 10.8821 1.3368 9.88812 1.3368C7.57299 1.3368 5.68961 3.22102 5.68961 5.537C5.68961 6.9043 6.34678 8.12034 7.36198 8.88725V14.2849C7.36198 14.7378 7.72891 15.1047 8.18185 15.1047C8.6348 15.1047 9.00173 14.7378 9.00173 14.2849V9.63933C9.28773 9.70077 9.5839 9.73424 9.88812 9.73424C10.1915 9.73424 10.4868 9.70119 10.772 9.63976V21.8794C10.4826 21.8412 10.1877 21.8196 9.88812 21.8196C9.58771 21.8196 9.29197 21.8412 9.00173 21.8798V17.8652C9.00173 17.4127 8.6348 17.0457 8.18185 17.0457C7.72891 17.0457 7.36198 17.4127 7.36198 17.8652V22.3124C4.89177 23.3145 3.14355 25.7393 3.14355 28.5663C3.14355 30.6997 4.13969 32.6034 5.68961 33.841V38.4086C7.0185 38.3809 8.33927 38.3513 9.65191 38.3197C10.6437 38.2959 12.121 38.2578 14.0837 38.2052ZM30.7578 7.94874L31.6955 9.2063L30.2506 10.2859L28.1914 11.824L27.2533 10.5664L30.7578 7.94874ZM32.3802 14.762L31.8548 14.0577L32.6747 13.4451L33.1992 14.1484L32.3802 14.762ZM33.3331 10.0296C33.3339 10.0291 33.3344 10.0287 33.3348 10.0283L33.8178 9.66772C33.8949 9.6101 33.975 9.59781 34.0288 9.59781C34.0822 9.59781 34.217 9.61137 34.3093 9.73594C34.4254 9.89144 34.3928 10.1139 34.2398 10.2296L32.3988 11.6049C32.3819 11.6155 32.3654 11.6261 32.3493 11.638C32.3327 11.6502 32.3179 11.6634 32.3026 11.6765L30.2727 13.1934C30.2532 13.2053 30.2341 13.2175 30.2155 13.2311C30.1968 13.2455 30.179 13.2608 30.1617 13.276L28.4516 14.5535C28.3757 14.6098 28.2965 14.6217 28.2435 14.6217C28.1897 14.6217 28.0541 14.6081 27.9588 14.4798C27.8842 14.3806 27.8863 14.2747 27.8944 14.2205C27.902 14.1666 27.93 14.0654 28.0296 13.9912L31.1552 11.6562L33.3331 10.0296ZM23.8086 2.33335C24.4158 1.87914 25.1399 1.63932 25.9017 1.63932C27.0127 1.63932 28.0685 2.16557 28.727 3.04688L30.8222 5.85351L25.22 10.0363L23.0951 7.25513C22.8667 6.94879 22.6964 6.61703 22.5807 6.27341C22.5756 6.25476 22.5692 6.23654 22.5629 6.21875C22.2769 5.31795 22.368 4.33749 22.8044 3.50829C22.8158 3.48965 22.8264 3.47016 22.8362 3.45025C23.0701 3.02569 23.3955 2.64224 23.8086 2.33335ZM20.9134 3.90531C20.7702 4.48282 20.727 5.08279 20.7871 5.67767L16.6619 5.68022L14.0803 5.67767C14.0816 5.63107 14.0837 5.58403 14.0837 5.537C14.0837 4.95864 13.9663 4.4074 13.754 3.90531H20.9134ZM9.88812 8.09492C8.47675 8.09492 7.32893 6.94752 7.32893 5.537C7.32893 4.12521 8.47675 2.97654 9.88812 2.97654C11.2974 2.97654 12.4443 4.12521 12.4443 5.537C12.4443 6.94752 11.2974 8.09492 9.88812 8.09492ZM4.7833 28.5667C4.7833 25.7504 7.07301 23.459 9.88812 23.459C12.7032 23.459 14.9934 25.7504 14.9934 28.5667C14.9934 31.3831 12.7032 33.6741 9.88812 33.6741C7.07344 33.6741 4.7833 31.3831 4.7833 28.5667ZM12.4443 34.8092V38.2052H9.55594C8.77801 38.2052 8.03144 38.3192 7.32893 38.5294V34.8079C8.11872 35.1329 8.98266 35.3139 9.88812 35.3139C10.7927 35.3139 11.6554 35.1334 12.4443 34.8092Z" fill="#00A1D1"/>
<path d="M36.4323 37.7868H5.84304C5.34616 37.7868 4.94336 38.1896 4.94336 38.6865C4.94336 39.1833 5.34616 39.5861 5.84304 39.5861H36.4323C36.9292 39.5861 37.332 39.1833 37.332 38.6865C37.332 38.1896 36.9292 37.7868 36.4323 37.7868Z" fill="#00A1D1"/>
</svg>
