<svg width="40" height="40" viewBox="0 0 40 40" fill="none" xmlns="http://www.w3.org/2000/svg">
<path d="M19.8252 10.3413C21.208 10.3413 22.3291 9.22024 22.3291 7.83738C22.3291 6.45453 21.208 5.3335 19.8252 5.3335C18.4423 5.3335 17.3213 6.45453 17.3213 7.83738C17.3213 9.22024 18.4423 10.3413 19.8252 10.3413Z" fill="#00A1D1"/>
<path d="M20.6973 11.5351C20.0734 11.4084 19.3951 11.414 18.7823 11.5584C14.6196 12.0462 13.2679 16.8646 13.6496 20.5384C13.8151 22.1268 16.319 22.1434 16.1518 20.5384C16.0129 19.1996 16.0723 17.179 16.784 15.7429C16.784 17.4884 16.784 19.234 16.784 20.979C16.784 21.0407 16.7901 21.0984 16.7929 21.1579C16.7912 21.1862 16.7846 21.2101 16.7846 21.239C16.7846 25.394 16.7773 29.5473 16.6057 33.699C16.5296 35.5446 19.3912 35.5373 19.4668 33.699C19.6012 30.4451 19.6351 27.1896 19.6429 23.9334C19.7784 23.9423 19.914 23.9423 20.0496 23.9346C20.0579 27.1907 20.0907 30.4462 20.224 33.699C20.3001 35.5373 23.1618 35.5446 23.0851 33.699C22.9134 29.5473 22.9073 25.394 22.9073 21.239C22.9073 21.1101 22.8901 20.9929 22.864 20.8801C22.8601 19.0762 22.7912 17.2707 22.8123 15.4679C23.6646 16.9107 23.7423 19.1112 23.5946 20.5373C23.4268 22.1412 25.9312 22.1251 26.0968 20.5373C26.4873 16.7873 25.0707 11.844 20.6973 11.5351Z" fill="#00A1D1"/>
</svg>
