<svg width="40" height="40" viewBox="0 0 40 40" fill="none" xmlns="http://www.w3.org/2000/svg">
<g clip-path="url(#clip0_710_2563)">
<g filter="url(#filter0_d_710_2563)">
<path d="M20 40C31.0457 40 40 31.0457 40 20C40 8.95431 31.0457 0 20 0C8.95431 0 0 8.95431 0 20C0 31.0457 8.95431 40 20 40Z" fill="white"/>
<path d="M20 0C8.96 0 0 8.96 0 20C0 31.04 8.96 40 20 40C31.04 40 40 31.04 40 20C40 8.96 31.04 0 20 0ZM16.7755 29.7167L8 20.9412L10.4747 18.4665L16.7755 24.7498L30.0967 11.4286L32.5714 13.9208L16.7755 29.7167Z" fill="#00A1D1"/>
</g>
</g>
<defs>
<filter id="filter0_d_710_2563" x="-5" y="-5" width="50" height="50" filterUnits="userSpaceOnUse" color-interpolation-filters="sRGB">
<feFlood flood-opacity="0" result="BackgroundImageFix"/>
<feColorMatrix in="SourceAlpha" type="matrix" values="0 0 0 0 0 0 0 0 0 0 0 0 0 0 0 0 0 0 127 0" result="hardAlpha"/>
<feOffset/>
<feGaussianBlur stdDeviation="2.5"/>
<feColorMatrix type="matrix" values="0 0 0 0 1 0 0 0 0 1 0 0 0 0 1 0 0 0 0.5 0"/>
<feBlend mode="normal" in2="BackgroundImageFix" result="effect1_dropShadow_710_2563"/>
<feBlend mode="normal" in="SourceGraphic" in2="effect1_dropShadow_710_2563" result="shape"/>
</filter>
<clipPath id="clip0_710_2563">
<rect width="40" height="40" fill="white"/>
</clipPath>
</defs>
</svg>
