<svg width="40" height="40" viewBox="0 0 40 40" fill="none" xmlns="http://www.w3.org/2000/svg">
<g clip-path="url(#clip0_710_2561)">
<g filter="url(#filter0_d_710_2561)">
<path d="M20.5 38C30.165 38 38 30.165 38 20.5C38 10.835 30.165 3 20.5 3C10.835 3 3 10.835 3 20.5C3 30.165 10.835 38 20.5 38Z" fill="#48494E"/>
<path d="M20.5 3C10.84 3 3 10.84 3 20.5C3 30.16 10.84 38 20.5 38C30.16 38 38 30.16 38 20.5C38 10.84 30.16 3 20.5 3ZM17.6786 29.0021L10 21.3236L12.1654 19.1582L17.6786 24.6561L29.3346 13L31.5 15.1807L17.6786 29.0021Z" fill="white"/>
</g>
</g>
<defs>
<filter id="filter0_d_710_2561" x="-2" y="-2" width="45" height="45" filterUnits="userSpaceOnUse" color-interpolation-filters="sRGB">
<feFlood flood-opacity="0" result="BackgroundImageFix"/>
<feColorMatrix in="SourceAlpha" type="matrix" values="0 0 0 0 0 0 0 0 0 0 0 0 0 0 0 0 0 0 127 0" result="hardAlpha"/>
<feOffset/>
<feGaussianBlur stdDeviation="2.5"/>
<feColorMatrix type="matrix" values="0 0 0 0 1 0 0 0 0 1 0 0 0 0 1 0 0 0 0.5 0"/>
<feBlend mode="normal" in2="BackgroundImageFix" result="effect1_dropShadow_710_2561"/>
<feBlend mode="normal" in="SourceGraphic" in2="effect1_dropShadow_710_2561" result="shape"/>
</filter>
<clipPath id="clip0_710_2561">
<rect width="40" height="40" fill="white"/>
</clipPath>
</defs>
</svg>
