<svg width="40" height="40" viewBox="0 0 40 40" fill="none" xmlns="http://www.w3.org/2000/svg">
<g clip-path="url(#clip0_741_2808)">
<path d="M20 5.24897e-05C16.0444 5.24897e-05 12.1776 1.17303 8.88861 3.37066C5.59962 5.56829 3.03617 8.69186 1.52242 12.3464C0.00866563 16.0009 -0.387401 20.0222 0.384303 23.9019C1.15601 27.7815 3.06082 31.3451 5.85787 34.1422C8.65492 36.9392 12.2186 38.8441 16.0982 39.6158C19.9778 40.3875 23.9992 39.9914 27.6537 38.4776C31.3082 36.9639 34.4318 34.4004 36.6294 31.1115C38.827 27.8225 40 23.9557 40 20.0001C40.006 17.3719 39.4928 14.7685 38.4899 12.3393C37.4869 9.91002 36.014 7.70285 34.1556 5.84448C32.2972 3.9861 30.09 2.51314 27.6608 1.51018C25.2316 0.507226 22.6281 -0.00597535 20 5.24897e-05ZM10.5143 29.4858V10.5143H29.4857V29.4858H10.5143Z" fill="#EACE21"/>
<path d="M20 5.24897e-05C16.0444 5.24897e-05 12.1776 1.17303 8.88861 3.37066C5.59962 5.56829 3.03617 8.69186 1.52242 12.3464C0.00866568 16.0009 -0.387401 20.0222 0.384303 23.9019C1.15601 27.7815 3.06082 31.3451 5.85787 34.1422C8.65492 36.9392 12.2186 38.8441 16.0982 39.6158C19.9778 40.3875 23.9992 39.9914 27.6537 38.4776C31.3082 36.9639 34.4318 34.4004 36.6294 31.1115C38.827 27.8225 40 23.9557 40 20.0001C40.006 17.3719 39.4928 14.7685 38.4899 12.3393C37.4869 9.91002 36.014 7.70285 34.1556 5.84448C32.2972 3.9861 30.09 2.51314 27.6608 1.51018C25.2316 0.507226 22.6281 -0.00597535 20 5.24897e-05Z" fill="#EACE21"/>
<rect x="13" y="12" width="4" height="16" fill="white"/>
<rect x="23" y="12" width="4" height="16" fill="white"/>
</g>
<defs>
<clipPath id="clip0_741_2808">
<rect width="40" height="40" fill="white"/>
</clipPath>
</defs>
</svg>
