<svg width="41" height="41" viewBox="0 0 41 41" fill="none" xmlns="http://www.w3.org/2000/svg">
<path d="M21 41C32.0457 41 41 32.0457 41 21C41 9.95431 32.0457 1 21 1C9.95431 1 1 9.95431 1 21C1 32.0457 9.95431 41 21 41Z" fill="#5ED1AD"/>
<path fill-rule="evenodd" clip-rule="evenodd" d="M28.4004 21.81L18.2104 30.38C18.1063 30.4768 17.9759 30.5406 17.8356 30.5634C17.6953 30.5863 17.5514 30.5671 17.4221 30.5083C17.2927 30.4494 17.1836 30.3537 17.1085 30.233C17.0335 30.1123 16.9959 29.9721 17.0004 29.83V12.7C17.0011 12.5636 17.0406 12.4302 17.1142 12.3153C17.1878 12.2005 17.2925 12.1089 17.4162 12.0513C17.5398 11.9937 17.6773 11.9723 17.8126 11.9898C17.9479 12.0073 18.0754 12.0628 18.1804 12.15L28.4004 20.71C28.4804 20.7776 28.5447 20.8618 28.5888 20.9568C28.6329 21.0518 28.6557 21.1553 28.6557 21.26C28.6557 21.3647 28.6329 21.4682 28.5888 21.5632C28.5447 21.6582 28.4804 21.7424 28.4004 21.81Z" fill="white"/>
</svg>
