<svg width="45" height="45" viewBox="0 0 45 45" fill="none" xmlns="http://www.w3.org/2000/svg">
<g filter="url(#filter0_d_722_2577)">
<path d="M22.5 40C32.165 40 40 32.165 40 22.5C40 12.835 32.165 5 22.5 5C12.835 5 5 12.835 5 22.5C5 32.165 12.835 40 22.5 40Z" fill="white"/>
</g>
<path d="M22.5 40C32.165 40 40 32.165 40 22.5C40 12.835 32.165 5 22.5 5C12.835 5 5 12.835 5 22.5C5 32.165 12.835 40 22.5 40Z" fill="#00A1D1"/>
<path d="M23.3532 13.75H21.4326V23.3529H23.3532V13.75Z" fill="white"/>
<path d="M27.9911 15.8339L26.6275 17.1975C28.1448 18.4171 29.1147 20.2896 29.1147 22.3927C29.1147 26.109 26.109 29.1147 22.3926 29.1147C18.6763 29.1147 15.6706 26.109 15.6706 22.3927C15.6706 20.2896 16.6405 18.417 18.1481 17.1879L16.7941 15.8339C14.9312 17.4183 13.75 19.7615 13.75 22.3927C13.75 27.1653 17.62 31.0353 22.3926 31.0353C27.1653 31.0353 31.0353 27.1653 31.0353 22.3927C31.0353 19.7615 29.8541 17.4183 27.9911 15.8339Z" fill="white"/>
<defs>
<filter id="filter0_d_722_2577" x="0" y="0" width="45" height="45" filterUnits="userSpaceOnUse" color-interpolation-filters="sRGB">
<feFlood flood-opacity="0" result="BackgroundImageFix"/>
<feColorMatrix in="SourceAlpha" type="matrix" values="0 0 0 0 0 0 0 0 0 0 0 0 0 0 0 0 0 0 127 0" result="hardAlpha"/>
<feOffset/>
<feGaussianBlur stdDeviation="2.5"/>
<feColorMatrix type="matrix" values="0 0 0 0 1 0 0 0 0 1 0 0 0 0 1 0 0 0 0.5 0"/>
<feBlend mode="normal" in2="BackgroundImageFix" result="effect1_dropShadow_722_2577"/>
<feBlend mode="normal" in="SourceGraphic" in2="effect1_dropShadow_722_2577" result="shape"/>
</filter>
</defs>
</svg>
