<svg width="40" height="40" viewBox="0 0 40 40" fill="none" xmlns="http://www.w3.org/2000/svg">
<g clip-path="url(#clip0_24_200)">
<g opacity="0.840634" filter="url(#filter0_d_24_200)">
<path opacity="0.840634" d="M13.5012 10.8172H23.8106C24.0815 10.8172 24.3011 10.5765 24.3011 10.2796C24.3011 9.98264 24.0815 9.74194 23.8106 9.74194H13.5012C13.2303 9.74194 13.0107 9.98264 13.0107 10.2796C13.0107 10.5765 13.2303 10.8172 13.5012 10.8172Z" fill="#00A1D1"/>
<path opacity="0.840634" d="M4.36159 15.6559H14.6709C14.9418 15.6559 15.1614 15.4152 15.1614 15.1182C15.1614 14.8213 14.9418 14.5806 14.6709 14.5806H4.36159C4.09069 14.5806 3.87109 14.8213 3.87109 15.1182C3.87109 15.4152 4.09069 15.6559 4.36159 15.6559Z" fill="#00A1D1"/>
<path opacity="0.840634" d="M7.09668 21.0322C7.09668 21.3291 7.31628 21.5699 7.58718 21.5699H17.8965C18.1674 21.5699 18.387 21.3291 18.387 21.0322C18.387 20.7352 18.1674 20.4946 17.8965 20.4946H7.58718C7.31628 20.4946 7.09668 20.7352 7.09668 21.0322Z" fill="#00A1D1"/>
<path opacity="0.840634" d="M13.059 26.4086H3.82212C3.55198 26.4086 3.33301 26.6492 3.33301 26.9462C3.33301 27.2431 3.55198 27.4839 3.82212 27.4839H13.059C13.3291 27.4839 13.5481 27.2431 13.5481 26.9462C13.5481 26.6492 13.3291 26.4086 13.059 26.4086Z" fill="#00A1D1"/>
<path opacity="0.840634" d="M29.6777 14.043C31.1622 14.043 32.3656 12.8394 32.3656 11.3548C32.3656 9.87022 31.1621 8.66666 29.6777 8.66666C28.1929 8.66666 26.9893 9.87029 26.9893 11.3548C26.9892 12.8394 28.1928 14.043 29.6777 14.043Z" fill="#00A1D1"/>
<path opacity="0.840634" d="M34.1018 13.0607C32.5757 15.2549 30.5321 15.5089 28.333 14.169C28.1833 14.0779 27.5191 13.7023 27.3721 13.6126C23.8344 11.4571 20.3009 12.3024 17.9312 15.7085C16.9242 17.1572 19.2532 18.5303 20.2489 17.0985C21.4733 15.3387 23.0301 14.8295 24.7328 15.3869C23.861 16.9401 23.0988 18.4839 22.0232 20.6773C20.9474 22.8707 18.5721 24.6223 16.2898 23.2523C14.643 22.2644 13.1579 24.6927 14.7998 25.6775C17.9156 27.5467 21.5691 26.3989 23.4342 23.9693C23.4989 24.0048 23.5672 24.0368 23.6422 24.0637C25.1659 24.6085 27.1631 26.0591 27.7717 26.5732C28.3801 27.0873 29.4254 29.7063 30.0461 31.0222C30.7992 32.6189 33.2311 31.4559 32.4753 29.8525C31.7716 28.3595 30.5906 25.3797 29.6693 24.6258C28.9304 24.0212 27.4957 22.8959 26.2789 22.2575C27.1021 20.6209 27.9593 19.0019 28.8616 17.4108C31.7379 18.3154 34.4718 17.2499 36.4189 14.4504C37.4267 13.0019 35.0982 11.6288 34.1018 13.0607Z" fill="#00A1D1"/>
</g>
</g>
<defs>
<filter id="filter0_d_24_200" x="-1.66699" y="5.66666" width="43.334" height="33.1183" filterUnits="userSpaceOnUse" color-interpolation-filters="sRGB">
<feFlood flood-opacity="0" result="BackgroundImageFix"/>
<feColorMatrix in="SourceAlpha" type="matrix" values="0 0 0 0 0 0 0 0 0 0 0 0 0 0 0 0 0 0 127 0" result="hardAlpha"/>
<feOffset dy="2"/>
<feGaussianBlur stdDeviation="2.5"/>
<feColorMatrix type="matrix" values="0 0 0 0 1 0 0 0 0 1 0 0 0 0 1 0 0 0 0.5 0"/>
<feBlend mode="normal" in2="BackgroundImageFix" result="effect1_dropShadow_24_200"/>
<feBlend mode="normal" in="SourceGraphic" in2="effect1_dropShadow_24_200" result="shape"/>
</filter>
<clipPath id="clip0_24_200">
<rect width="40" height="40" fill="white"/>
</clipPath>
</defs>
</svg>
